<?xml version='1.0' encoding='iso-8859-1'?>
<!-- Generator: Adobe Illustrator 19.0.0, SVG Export Plug-In . SVG Version: 6.00 Build 0)  -->
<svg xmlns:xlink="http://www.w3.org/1999/xlink" version="1.1" xml:space="preserve" viewBox="0 0 512.002 512.002" xmlns="http://www.w3.org/2000/svg" x="0px" y="0px" id="Capa_1" style="enable-background:new 0 0 512.002 512.002;">
 <path d="M369.853,444.045c-4.963-1.811-9.781-4.048-14.433-6.691c-19.937-11.321-36.67-29.989-48.012-53.267&#xd;&#xa;&#x9;c-29.001-59.541-15.588-134.577,19.323-185.356c19.323-28.147,45.098-47.294,73.391-47.294c10.707,0,21.04,2.737,30.801,7.669&#xd;&#xa;&#x9;c3.642,1.842,7.201,3.975,10.666,6.389c19.063,13.278,35.411,34.88,47.179,60.093C550.184,356.866,459.873,476.823,369.853,444.045z&#xd;&#xa;&#x9;" style="fill:#7C84E8;"/>
 <path d="M428.812,352.797c-17.752,41.727-44.058,69.895-73.391,84.557&#xd;&#xa;&#x9;c-19.937-11.321-36.67-29.989-48.012-53.267c-29.001-59.541-15.588-134.577,19.323-185.356&#xd;&#xa;&#x9;c19.323-28.147,45.098-47.294,73.391-47.294c10.707,0,21.04,2.737,30.801,7.669C451.361,219.521,454.826,291.602,428.812,352.797z" style="fill:#6E76E5;"/>
 <g>
  <path d="M445.502,237.071c-0.066,0.021-0.132,0.043-0.198,0.067c-2.589,0.906-4.316,3.171-4.662,5.716&#xd;&#xa;&#x9;&#x9;c-0.046,0.34-0.459,0.485-0.708,0.248c-1.857-1.774-4.619-2.467-7.209-1.561c-0.066,0.023-0.131,0.047-0.196,0.072&#xd;&#xa;&#x9;&#x9;c-4.714,1.805-5.157,8.324-0.791,10.856l13.534,7.847c0.715,0.414,1.632,0.094,1.931-0.676l5.686-14.575&#xd;&#xa;&#x9;&#x9;C454.724,240.36,450.313,235.541,445.502,237.071z" style="fill:#424EDE;"/>
  <path d="M456.215,201.983c-0.059-0.034-0.121-0.07-0.181-0.103c-2.405-1.319-5.244-1.089-7.366,0.355&#xd;&#xa;&#x9;&#x9;c-0.284,0.194-0.668-0.017-0.658-0.36c0.078-2.567-1.254-5.084-3.66-6.404c-0.061-0.033-0.123-0.067-0.184-0.098&#xd;&#xa;&#x9;&#x9;c-4.494-2.299-9.638,1.729-8.601,6.67l3.212,15.311c0.17,0.809,1.021,1.276,1.794,0.984l14.64-5.516&#xd;&#xa;&#x9;&#x9;C459.934,211.04,460.568,204.537,456.215,201.983z" style="fill:#424EDE;"/>
  <path d="M486.883,271.526c-0.058-0.036-0.118-0.073-0.178-0.108c-2.364-1.391-5.209-1.247-7.373,0.133&#xd;&#xa;&#x9;&#x9;c-0.289,0.185-0.667-0.037-0.646-0.38c0.155-2.563-1.101-5.12-3.465-6.511c-0.06-0.035-0.121-0.07-0.181-0.103&#xd;&#xa;&#x9;&#x9;c-4.423-2.433-9.686,1.439-8.798,6.409l2.751,15.4c0.146,0.814,0.982,1.306,1.764,1.037l14.799-5.074&#xd;&#xa;&#x9;&#x9;C490.328,280.691,491.158,274.212,486.883,271.526z" style="fill:#424EDE;"/>
 </g>
 <path d="M145.715,448.155c-14.662,2.633-30.083,1.498-45.494-4.11c-26.274-9.563-48.449-31.259-62.444-59.957&#xd;&#xa;&#x9;C8.776,324.546,22.189,249.511,57.1,198.731c19.334-28.147,45.098-47.294,73.391-47.294c5.14,0,10.198,0.635,15.151,1.842&#xd;&#xa;&#x9;c9.199,2.227,18.023,6.431,26.316,12.216c19.074,13.278,35.411,34.88,47.19,60.093C270.042,334.39,216.713,435.418,145.715,448.155z&#xd;&#xa;&#x9;" style="fill:#FF0C38;"/>
 <path d="M145.715,448.155c-5.047-0.895-10.125-2.258-15.203-4.11c-26.285-9.563-48.459-31.259-62.444-59.957&#xd;&#xa;&#x9;C39.067,324.546,52.47,249.511,87.391,198.731c15.817-23.038,35.952-40.041,58.251-45.452c9.199,2.227,18.023,6.431,26.316,12.216&#xd;&#xa;&#x9;c19.074,13.278,35.411,34.88,47.19,60.093C270.042,334.39,216.713,435.418,145.715,448.155z" style="fill:#FF3F62;"/>
 <path d="M395.316,352.797c-23.839,56.045-63.131,87.637-104.431,94.9&#xd;&#xa;&#x9;c-52.517,9.251-108.281-20.853-139.603-90.051c-37.304-82.371-21.415-188.905,26.67-262.556&#xd;&#xa;&#x9;c25.046-38.282,58.074-64.13,94.265-64.13c6.202,0,12.362,0.801,18.439,2.331C377.678,55.195,448.791,226.993,395.316,352.797z" style="fill:#78B9EB;"/>
 <path d="M395.316,352.797c-23.839,56.045-63.131,87.637-104.431,94.9&#xd;&#xa;&#x9;c-40.176-7.065-78.438-37.127-102.392-90.051c-37.315-82.371-21.415-188.905,26.67-262.556&#xd;&#xa;&#x9;c20.645-31.55,46.701-54.651,75.493-61.799C377.678,55.195,448.791,226.993,395.316,352.797z" style="fill:#96C8EF;"/>
 <path d="M411.266,216.748c-128.469-0.094-221.141-40.457-262.442-62.684&#xd;&#xa;&#x9;c7.336-20.354,16.68-39.521,27.658-56.701c0.489-0.77,0.978-1.53,1.467-2.279c31.862,18.137,109.239,55.493,219.539,64.827&#xd;&#xa;&#x9;C404.128,179.215,408.633,198.237,411.266,216.748z" style="fill:#5AAAE7;"/>
 <g>
  <circle cy="237.543" r="11.1" cx="90.958" style="fill:#FFA5B5;"/>
  <circle cy="270.768" r="11.1" cx="63.903" style="fill:#FFA5B5;"/>
  <circle cy="195.462" r="11.1" cx="98.586" style="fill:#FFA5B5;"/>
 </g>
 <path d="M412.234,288.35c-2.799,23.319-8.658,45.005-16.92,64.442&#xd;&#xa;&#x9;c-109.769-6.795-204.253-36.493-262.202-59.125c-3.278-23.735-3.247-48.022-0.364-71.882&#xd;&#xa;&#x9;C171.561,241.087,270.685,282.752,412.234,288.35z" style="fill:#5AAAE7;"/>
 <g>
  <path d="M177.952,95.09c-10.41,15.724-20.947,36.288-29.125,58.979c8.533,4.589,19.251,9.948,32.029,15.577&#xd;&#xa;&#x9;&#x9;c6.368-21.124,14.932-41.352,25.421-59.916C194.622,104.237,185.132,99.169,177.952,95.09z" style="fill:#1E81CE;"/>
  <path d="M168.472,237.773c-14.901-6.035-26.878-11.592-35.723-15.994&#xd;&#xa;&#x9;&#x9;c-2.882,23.86-2.914,48.147,0.364,71.882c11.769,4.599,25.046,9.49,39.646,14.422C168.233,285.192,166.922,261.436,168.472,237.773&#xd;&#xa;&#x9;&#x9;z" style="fill:#1E81CE;"/>
 </g>
 <path d="M507.017,366.037c-6.317,3.715-14.676,9.855-22.222,19.39c-4.431,5.598-8.578,12.36-11.857,20.485&#xd;&#xa;&#x9;c-1.364,3.381-6.402,2.442-6.487-1.202c-0.345-14.872,0.207-36.415,4.369-58.699c2.695-14.412,6.889-29.136,13.34-42.559&#xd;&#xa;&#x9;c1.322-2.768-1.446-5.702-4.266-4.495c-6.951,2.986-17.315,9.396-26.118,22.83c-3.621,5.505-6.972,12.195-9.719,20.322&#xd;&#xa;&#x9;c-0.156-10.364-2.206-19.771-6.264-29.23c-5.068-11.842-13.288-23.787-24.88-37.835c-2.237-2.716-6.597-0.51-5.754,2.893&#xd;&#xa;&#x9;c2.352,9.459,5.411,22.976,7.981,38.324c4.788,28.561,7.876,63.461,1.571,90.394c-0.45,1.921-3.268,1.669-3.38-0.301&#xd;&#xa;&#x9;c-0.802-14.218-3.88-40.357-15.246-66.005c-6.847-15.504-16.732-30.832-30.967-43.236c-2.383-2.071-6.056,0.083-5.411,3.174&#xd;&#xa;&#x9;c3.715,17.783,11.238,58.615,11.634,95.618c0.154,14.225-0.749,27.877-3.326,39.435c-0.677,3.041-5.004,3.028-5.653-0.019&#xd;&#xa;&#x9;c-2.72-12.758-5.372-23.547-7.847-32.602c-4.027-14.786-7.575-24.932-10.135-31.404c-1.165-2.955-5.401-2.695-6.254,0.364&#xd;&#xa;&#x9;c-1.842,6.556-4.443,12.383-7.388,17.523c-9.552,16.732-22.684,26.274-25.005,30.457c-1.238,2.216-4.631,1.165-4.412-1.363&#xd;&#xa;&#x9;c1.738-19.823,7.711-45.889,13.798-68.688c5.016-18.845,10.114-35.452,12.965-44.474c0.708-2.216-1.925-3.996-3.746-2.529&#xd;&#xa;&#x9;c-8.803,7.149-16.254,15.047-22.57,23.215c-28.532,36.94-33.704,79.593-34.328,85.816c2.581-29.875,5.546-66.992,7.898-97.043&#xd;&#xa;&#x9;c1.613-20.53,2.924-37.773,3.642-47.117c0.177-2.341-2.83-3.486-4.225-1.602c-11.29,15.161-18.761,33.85-23.538,52.018&#xd;&#xa;&#x9;c-3.933,14.974-6.035,29.594-6.951,41.602c-0.187,2.466-3.6,2.986-4.526,0.687c-3.965-9.865-8.46-18.876-12.893-26.753&#xd;&#xa;&#x9;c-4.193-7.471-8.335-13.923-11.935-19.157c-1.519-2.196-4.964-0.562-4.193,1.998c2.862,9.542,4.298,19.719,4.787,29.937&#xd;&#xa;&#x9;c1.374,28.46-4.672,57.2-8.075,73.318c-0.468,2.227-3.538,2.539-4.454,0.437l-4.547-10.426c-0.029-0.075-0.077-0.2-0.105-0.275&#xd;&#xa;&#x9;c-2.647-7.921-5.595-14.715-8.624-20.495c-7.471-14.318-15.411-22.497-20.343-26.649c-1.654-1.394-4.162-0.021-3.85,2.133&#xd;&#xa;&#x9;c1.072,7.575,2.112,21.81-1.811,36.815c-3.538,13.517-11.113,27.669-26.347,38.126c-1.374,0.937-3.309,0.208-3.642-1.436&#xd;&#xa;&#x9;c-5.068-24.62,4.526-67.158,13.6-98.854c4.048-14.152,7.992-26.15,10.479-33.423c0.77-2.237-1.904-4.1-3.725-2.581&#xd;&#xa;&#x9;c-10.978,9.115-19.552,19.49-26.233,30.166c-15.484,24.734-20.853,51.071-22.716,67.013c-0.312,2.674-4.173,2.81-4.662,0.146&#xd;&#xa;&#x9;c-3.361-18.48-3.413-40.478-1.998-61.508c1.894-28.335,6.42-54.9,9.084-68.782c0.489-2.508-2.841-3.881-4.266-1.759&#xd;&#xa;&#x9;c-14.11,20.999-21.581,50.592-25.275,75.857c-0.937,6.327-1.623,12.372-2.123,17.95c-0.239,2.643-3.975,2.914-4.62,0.343&#xd;&#xa;&#x9;c-1.374-5.494-2.976-10.593-4.735-15.307c-7.045-18.886-16.566-31.612-23.548-39.125c-1.8-1.935-4.932,0.083-3.892,2.518&#xd;&#xa;&#x9;c5.515,13.007,8.553,26.743,10.031,39.979c2.81,25.359-0.114,48.875-2.414,61.851c-0.437,2.466-3.892,2.612-4.578,0.208&#xd;&#xa;&#x9;c-8.918-30.52-29.75-45.046-40.655-50.769c-2.092-1.093-4.287,1.207-3.143,3.257c8.21,14.63,15.723,34.11,21.977,53.017&#xd;&#xa;&#x9;c12.435,37.627,47.533,63.09,87.168,63.09h295.178c39.229,0,74.234-24.89,86.835-62.039c1.623-4.807,3.34-9.656,5.14-14.464&#xd;&#xa;&#x9;c4.548-12.178,9.607-24.054,14.978-34.086C513.166,367.517,509.89,364.348,507.017,366.037z" style="fill:#6DC82A;"/>
 <path d="M507.011,366.041c-3.007,1.769-6.493,4.1-10.125,7.086c-1.894,5.036-3.704,10.135-5.411,15.182&#xd;&#xa;&#x9;c-5.242,15.452-14.364,28.78-26.052,39.08c-1.787,1.574-4.603,0.575-4.95-1.781l-5.918-40.201c-0.614-4.183-6.431-4.693-7.763-0.676&#xd;&#xa;&#x9;c-1.582,4.755-3.09,9.438-4.37,13.486c-1.197,3.767-6.535,3.715-7.659-0.073c-0.583-1.946-2.206-2.872-3.829-2.872&#xd;&#xa;&#x9;c-1.852,0-3.704,1.207-3.996,3.507c-2.037,16.332-4.61,34.699-6.527,47.986c-0.197,1.363-1.267,2.434-2.631,2.633&#xd;&#xa;&#x9;c-7.406,1.082-3.356,3.146-24.067-52.419c-1.426-4.079-7.409-3.319-7.773,0.989l-3.101,41.977&#xd;&#xa;&#x9;c-0.8,9.443-8.698,16.701-18.176,16.701l0,0c-8.087,0-15.241-5.316-17.495-13.083c-1.616-5.569-3.334-17.13-4.828-21.245&#xd;&#xa;&#x9;c-1.061-2.924-4.839-3.528-6.857-1.176c-9.646,11.238-34.578,17.762-38.491,17.762c-7.492,0-8.273-18.147-7.461-34.412&#xd;&#xa;&#x9;c0.219-4.474-5.921-5.91-7.679-1.8l-10.135,23.59c-1.582,3.684-6.993,3.018-7.638-0.937l-5.505-33.642&#xd;&#xa;&#x9;c-0.666-4.121-6.399-4.599-7.742-0.645c-3.861,11.342-8.47,25.088-8.47,25.993c0,1.036-5.261-20.343-8.803-34.874&#xd;&#xa;&#x9;c-0.148-0.606-0.689-1.026-1.312-1.026c-0.714,0-1.298,0.548-1.345,1.26c-1.231,18.286-7.875,45.692-12.232,62.191&#xd;&#xa;&#x9;c-0.666,2.522-2.505,4.644-4.998,5.411c-2.965,0.913-6.059-0.091-7.928-2.368l-19.521-23.789c-1.904-2.31-5.629-1.821-6.774,0.947&#xd;&#xa;&#x9;c-3.624,8.775-10.547,16.707-16.915,22.692c-1.947,1.83-4.51,2.854-7.183,2.854h-14.449c-5.545,0-10.13-4.328-10.436-9.865&#xd;&#xa;&#x9;c-0.908-16.432-2.497-36.999-3.416-48.42c-0.233-2.891-4.104-3.662-5.433-1.083c-5.312,10.313-10.592,25.823-13.772,35.889&#xd;&#xa;&#x9;c-0.876,2.775-4.841,2.658-5.548-0.165l-11.332-45.191c-0.751-2.997-5.051-2.874-5.632,0.16l-5.705,29.863&#xd;&#xa;&#x9;c-0.541,2.831-4.441,3.206-5.512,0.53l-7.542-18.861c-1.107-2.768-5.159-2.247-5.537,0.71c-1.328,10.391-4.079,22.486-6.687,32.594&#xd;&#xa;&#x9;c-0.55,2.133-3.156,2.969-4.824,1.53c-12.316-10.629-21.88-24.575-27.235-40.781c-1.883-5.702-3.881-11.457-5.983-17.107&#xd;&#xa;&#x9;c-4.828-3.892-9.355-6.628-12.851-8.47c-2.092-1.093-4.287,1.207-3.143,3.257c8.21,14.63,15.723,34.11,21.977,53.017&#xd;&#xa;&#x9;c12.435,37.627,47.533,63.09,87.168,63.09h295.178c39.229,0,74.234-24.89,86.835-62.039c5.754-16.992,12.622-34.557,20.114-48.542&#xd;&#xa;&#x9;C513.171,367.508,509.893,364.345,507.011,366.041z" style="fill:#5EAC24;"/>
 <g/>
 <g/>
 <g/>
 <g/>
 <g/>
 <g/>
 <g/>
 <g/>
 <g/>
 <g/>
 <g/>
 <g/>
 <g/>
 <g/>
 <g/>
</svg>
